<?xml version="1.0" standalone="no"?>
<!DOCTYPE svg PUBLIC "-//W3C//DTD SVG 20010904//EN"
 "http://www.w3.org/TR/2001/REC-SVG-20010904/DTD/svg10.dtd">
<svg version="1.0" xmlns="http://www.w3.org/2000/svg"
 width="512.000000pt" height="471.000000pt" viewBox="0 0 512.000000 471.000000"
 preserveAspectRatio="xMidYMid meet">

<g transform="translate(0.000000,471.000000) scale(0.100000,-0.100000)"
fill="#000000" stroke="none">
<path d="M2033 3873 c-7 -18 -13 -43 -13 -57 0 -24 2 -24 96 -28 88 -3 97 -5
116 -28 16 -20 19 -35 16 -75 -5 -59 -460 -1529 -493 -1595 -44 -86 -100 -120
-196 -120 -56 0 -69 -13 -72 -70 l-2 -41 790 -3 c704 -2 800 -5 879 -20 78
-16 90 -16 103 -3 19 19 186 568 176 577 -5 4 -23 13 -42 20 -30 12 -34 12
-43 -5 -19 -34 -145 -170 -275 -296 -94 -93 -140 -130 -169 -139 -26 -8 -149
-14 -365 -17 -326 -5 -327 -5 -349 17 -16 16 -20 29 -15 48 13 56 487 1584
502 1620 43 103 93 131 230 132 103 0 111 5 116 76 l2 37 -489 1 -489 1 -14
-32z"/>
<path d="M3538 2036 c-91 -34 -124 -79 -115 -160 3 -28 21 -118 40 -201 52
-219 51 -215 34 -215 -17 0 -64 54 -191 217 -94 122 -129 148 -183 140 -102
-17 -189 -149 -163 -248 20 -73 65 -92 310 -129 170 -26 190 -30 190 -40 0 -4
-75 -22 -167 -39 -280 -52 -350 -70 -382 -97 -109 -91 -18 -294 131 -294 49 0
100 42 277 228 143 151 189 186 155 120 -9 -18 -58 -107 -109 -198 -114 -201
-134 -254 -116 -298 22 -53 54 -67 156 -67 103 0 143 17 182 75 30 44 29 73
-11 258 -19 86 -37 181 -41 210 -11 86 14 67 114 -81 49 -73 104 -149 123
-169 31 -34 95 -61 121 -53 7 2 25 6 40 10 33 7 112 77 133 118 22 41 20 104
-3 136 -33 46 -98 69 -288 102 -168 29 -207 40 -193 54 3 4 80 15 169 26 313
38 338 45 380 111 16 27 19 45 16 93 -8 105 -58 165 -140 165 -59 0 -91 -23
-248 -175 -146 -143 -194 -183 -206 -172 -3 4 38 81 91 172 104 177 156 280
156 307 0 31 -21 64 -53 83 -40 24 -158 30 -209 11z"/>
</g>
</svg>
